<?xml version="1.0" encoding="UTF-8"?>
<svg id="Calque_2" data-name="Calque 2" xmlns="http://www.w3.org/2000/svg" viewBox="0 0 111.64 117.97">
  <defs>
    <style>
      .cls-1 {
        fill: #fff;
      }

      .cls-2 {
        fill: #c46966;
      }

      .cls-3 {
        fill: #e2988f;
      }

      .cls-4 {
        fill: #fce8e3;
      }

      .cls-5 {
        fill: #4c224b;
      }

      .cls-6 {
        fill: #f4ba5d;
      }
    </style>
  </defs>
  <g id="OBJECTS">
    <g>
      <circle class="cls-4" cx="55.82" cy="62.15" r="55.82"/>
      <g>
        <rect class="cls-3" x="41.05" y="54.8" width="29.53" height="33.36"/>
        <g>
          <path class="cls-3" d="m84.74,31.38c-1.63-3.9-4.96-1.98-4.96-1.98,1.92-17.71-7.08-29.4-23.97-29.4s-25.89,11.69-23.97,29.4c0,0-3.33-1.91-4.96,1.98s1.35,13.03,3.19,15.94c1.84,2.9,5.1,5.1,5.1,5.1,0,0,.21,3.26,1.06,5.52.85,2.27,10.48,12.69,13.31,14.28,3.71,2.19,9.19,2.19,12.52,0,2.83-1.59,12.47-12.01,13.31-14.28.85-2.27,1.06-5.52,1.06-5.52,0,0,3.26-2.2,5.1-5.1,1.84-2.9,4.82-12.04,3.19-15.94Z"/>
          <g>
            <path class="cls-2" d="m55.97,74.22c-2.32,0-4.69-.56-6.6-1.68-1.71-.96-5.66-4.91-8.59-8.17l.56-.5c2.99,3.32,6.84,7.14,8.41,8.02,3.59,2.11,8.92,2.12,12.13.01,1.6-.9,5.45-4.72,8.43-8.03l.56.5c-2.94,3.26-6.88,7.2-8.6,8.17-1.7,1.12-3.97,1.68-6.3,1.68Z"/>
            <rect class="cls-2" x="34.34" y="44.79" width=".75" height="7.65" transform="translate(-5.69 4.61) rotate(-7.03)"/>
            <rect class="cls-2" x="73.09" y="48.24" width="7.64" height=".75" transform="translate(20.09 119.68) rotate(-83.65)"/>
            <g>
              <path class="cls-2" d="m29.07,40.14c-.16-.57-1.48-5.65.35-7.04.61-.39,1.1-.35,1.41-.25.93.3,1.4,1.46,1.45,1.59l-.7.27c-.1-.26-.48-.98-.98-1.14-.23-.08-.48-.02-.75.15-1.05.8-.6,4.25-.06,6.23l-.72.2Z"/>
              <path class="cls-2" d="m82.57,40.14l-.72-.2c.54-1.98,1-5.43-.08-6.24-.25-.16-.5-.21-.73-.14-.6.2-.98,1.13-.98,1.14l-.7-.27c.05-.13.52-1.28,1.45-1.59.31-.1.81-.14,1.39.24,1.85,1.4.53,6.48.37,7.05Z"/>
            </g>
          </g>
          <path class="cls-5" d="m34.25,38.71c5.01.03,1.22-16.14,5.15-20.06,2-1.99,4.91-1.66,7.41-1.03,2.91.74,5.92,1.75,8.99,1.83,3.25.09,6.34-1.11,9.46-1.86,2.42-.59,5.05-.85,6.97,1.06,3.93,3.91.14,20.08,5.15,20.06-.35-3.74-.36-7.83,2.39-9.31h0c1.92-17.71-7.08-29.4-23.97-29.4s-25.89,11.69-23.97,29.4h0c2.23,1.45,2.74,5.4,2.39,9.31Z"/>
        </g>
        <path class="cls-6" d="m103.53,91.14c-15.76-7.03-32.94-9.52-32.94-9.52-7.88,8.22-22.57,8.33-29.53,0,0,0-17.18,2.49-32.94,9.52,9.8,16.08,27.5,26.83,47.71,26.83s37.91-10.74,47.71-26.83Z"/>
        <polygon class="cls-1" points="37.06 82.19 41.05 75.03 53.97 86.63 46.07 95.29 37.06 82.19"/>
        <polygon class="cls-1" points="74.56 82.19 70.57 75.03 57.65 86.63 65.56 95.29 74.56 82.19"/>
      </g>
    </g>
  </g>
</svg>