<?xml version="1.0" encoding="UTF-8"?>
<svg id="Calque_2" data-name="Calque 2" xmlns="http://www.w3.org/2000/svg" viewBox="0 0 111.64 117.14">
  <defs>
    <style>
      .cls-1 {
        fill: #6c82bc;
      }

      .cls-2 {
        fill: #c46966;
      }

      .cls-3 {
        fill: #94a5e4;
      }

      .cls-4 {
        fill: #e2988f;
      }

      .cls-5 {
        fill: #fce8e3;
      }

      .cls-6 {
        fill: #4c224b;
      }
    </style>
  </defs>
  <g id="OBJECTS">
    <g>
      <circle class="cls-5" cx="55.82" cy="61.32" r="55.82"/>
      <g>
        <ellipse class="cls-3" cx="55.65" cy="74.19" rx="16.66" ry="2.36"/>
        <rect class="cls-4" x="41.05" y="53.97" width="29.53" height="33.36"/>
        <g>
          <path class="cls-4" d="m85.64,32.35c-1.68-4.02-5.11-2.04-5.11-2.04,1.98-18.26-7.3-30.31-24.71-30.31s-26.69,12.05-24.71,30.31c0,0-3.43-1.97-5.11,2.04s1.39,13.43,3.29,16.43c1.9,2.99,5.26,5.26,5.26,5.26,0,0,.22,3.36,1.1,5.7.88,2.34,10.81,13.08,13.73,14.72,3.83,2.25,9.47,2.25,12.91,0,2.92-1.64,12.85-12.39,13.73-14.72.88-2.34,1.1-5.7,1.1-5.7,0,0,3.36-2.26,5.26-5.26,1.9-2.99,4.96-12.41,3.29-16.43Z"/>
          <g>
            <path class="cls-2" d="m28.26,41.37c-.16-.59-1.53-5.82.35-7.24.62-.4,1.13-.36,1.45-.26.97.32,1.46,1.57,1.49,1.63l-.7.27c-.11-.27-.49-1.02-1.02-1.18-.24-.08-.5-.03-.78.16-1.09.83-.62,4.39-.06,6.43l-.72.2Z"/>
            <path class="cls-2" d="m83.38,41.37l-.72-.2c.4-1.47,1.17-5.5-.08-6.45-.26-.17-.52-.22-.76-.14-.52.17-.91.91-1.02,1.18l-.7-.27c.02-.05.51-1.31,1.49-1.63.32-.1.83-.15,1.42.24,1.9,1.44.54,6.67.38,7.26Z"/>
          </g>
          <path class="cls-6" d="m55.82,0c-17.41,0-26.69,12.05-24.71,30.31h0c2.3,1.5,2.83,5.57,2.47,9.6h0s-.77,12.83,1.76,18.89c2.52,6.05,6.92,15.51,20.48,15.4h0s0,0,0,0h0c13.56.12,17.96-9.34,20.48-15.4,2.52-6.05,1.76-18.89,1.76-18.89h0s0,0,0,0c-.36-3.85-.37-8.08,2.47-9.6h0c1.98-18.26-7.3-30.31-24.71-30.31Zm19.05,28.05s-.34,16.75-2.92,20.42c-2.59,3.67-1.78-4.47-16.12-4.61-14.34-.14-13.54,8.28-16.13,4.61-2.58-3.66-2.92-20.35-2.92-20.42.17-3.7.53-7.24,2.12-8.82,2.06-2.05,5.07-1.72,7.64-1.06,3,.77,6.1,1.8,9.27,1.88,3.35.09,6.54-1.14,9.75-1.92,2.5-.6,5.21-.87,7.19,1.1,1.59,1.59,1.95,5.12,2.12,8.83h0Z"/>
        </g>
        <path class="cls-3" d="m106.33,85.09c-13.99-3.39-34.03-4.3-34.03-4.3-10.34,8.22-24.17,8.33-33.32,0,0,0-19.67,1.28-33.55,4.58,8.98,18.79,28.17,31.77,50.38,31.77h0c22.33,0,41.58-13.11,50.51-32.05Z"/>
        <path class="cls-3" d="m38.99,74.19v8.35c11.82,8.72,22.94,8.84,33.32,0v-8.35c-5.88,3.81-29.55,3.29-33.32,0Z"/>
        <path class="cls-1" d="m55.25,85.91c-1.62,0-3.23-.07-4.79-.21-3.09-.27-10.43-1.26-11.82-4.55l.69-.29c.85,2.02,5.04,3.55,11.2,4.09,8.54.75,19.17-.62,21.46-4.15l.63.41c-2.04,3.15-9.72,4.69-17.37,4.69Z"/>
        <path class="cls-1" d="m55.31,78.96c-3.03,0-5.98-.14-8.39-.4-4.24-.45-6.77-1.19-7.53-2.21l.6-.45c.28.38,1.54,1.33,7.01,1.91,8.68.92,21.89.18,24.35-1.97l.49.56c-2.06,1.8-9.51,2.55-16.54,2.55Z"/>
      </g>
    </g>
  </g>
</svg>