<?xml version="1.0" encoding="UTF-8"?>
<svg id="Calque_2" data-name="Calque 2" xmlns="http://www.w3.org/2000/svg" viewBox="0 0 111.64 119.59">
  <defs>
    <style>
      .cls-1 {
        fill: #fff;
      }

      .cls-2 {
        fill: #c46966;
      }

      .cls-3 {
        fill: #703870;
      }

      .cls-4 {
        fill: #e2988f;
      }

      .cls-5 {
        fill: #fce8e3;
      }

      .cls-6 {
        fill: #4c224b;
      }

      .cls-7 {
        fill: #f4ba5d;
      }
    </style>
  </defs>
  <g id="OBJECTS">
    <g>
      <circle class="cls-5" cx="55.82" cy="63.77" r="55.82" transform="translate(-28.74 58.15) rotate(-45)"/>
      <g>
        <path class="cls-6" d="m92.34,93.24c15.76-10.69,6.36-28.23-7.92-51.72-2.06-3.39-3.38-7.16-4.18-11.05-2.33-11.38-12.4-19.95-24.47-19.95s-22.31,8.7-24.53,20.23c-.77,4.01-2.04,7.91-3.95,11.52-13.13,24.84-25.98,44.86-7.22,50.98h72.28Z"/>
        <rect class="cls-4" x="42.72" y="56.42" width="26.15" height="33.36"/>
        <g>
          <path class="cls-7" d="m103.79,92.31c-12.31-5.17-34.76-9.07-34.76-9.07-8.62,7.26-19.52,7.21-26.3,0,0,0-22.74,3.37-35.57,7.86,9.17,16.29,26.27,27.52,46.08,28.42.89.03,1.77.06,2.67.06,20.37-.03,38.17-10.97,47.89-27.28Z"/>
          <path class="cls-1" d="m42.72,79.45l-5.15,4.62s3.01,12.96,9.15,13.2,9.05-8.62,9.05-8.62c-5.87-1.57-10.21-4.64-13.04-9.21Z"/>
          <path class="cls-1" d="m68.86,79.45l5.15,4.62s-3.01,12.96-9.15,13.2-9.05-8.62-9.05-8.62c5.87-1.57,10.21-4.64,13.04-9.21Z"/>
        </g>
        <g>
          <circle class="cls-6" cx="55.79" cy="12" r="12" transform="translate(35.01 65.15) rotate(-80.78)"/>
          <g>
            <path class="cls-4" d="m55.76,16.03h0c-16.86.02-20.69,12.64-20.34,25.35,0,9.16-.65,12.13.2,14.4.47,3.23,7.03,19.7,20.13,19.7s19.1-15.6,20.26-19.7c.85-2.27.08-5.24.08-14.4.35-12.71-3.48-25.33-20.34-25.35Z"/>
            <path class="cls-2" d="m55.76,75.85c-4.91,0-9.39-2.22-13.32-6.6l.56-.5c3.78,4.21,8.08,6.35,12.76,6.35s9.11-2.13,12.83-6.33l.56.5c-3.87,4.37-8.37,6.58-13.39,6.58Z"/>
            <path class="cls-4" d="m36.16,41.68s-3.39-4.37-6.87-1.81c-3.48,2.56-.09,17.07,6.87,14.52,6.96-2.56,0-12.7,0-12.7Z"/>
            <path class="cls-4" d="m75.42,41.68s3.39-4.37,6.87-1.81c3.48,2.56.09,17.07-6.87,14.52-6.96-2.56,0-12.7,0-12.7Z"/>
            <rect class="cls-2" x="34.54" y="48.41" width=".75" height="6.3" transform="translate(-6.79 5.32) rotate(-7.94)"/>
            <rect class="cls-2" x="73.57" y="51.18" width="6.27" height=".75" transform="translate(18.26 123.16) rotate(-84.69)"/>
            <path class="cls-2" d="m31.03,47.4c-.77-2.24-.81-3.85-.12-4.76.59-.78,1.47-.73,1.5-.73l-.04.75.02-.37-.02.37s-.53-.01-.88.45c-.36.49-.61,1.58.24,4.05l-.71.24Z"/>
            <path class="cls-2" d="m80.83,47.4l-.71-.24c.85-2.48.59-3.58.23-4.06-.34-.45-.86-.44-.87-.44l-.04-.75s.92-.04,1.5.73c.69.91.65,2.51-.12,4.76Z"/>
            <path class="cls-1" d="m80.71,53.79c0,.86-.7,1.55-1.55,1.55s-1.55-.7-1.55-1.55.7-1.55,1.55-1.55,1.55.7,1.55,1.55Z"/>
            <path class="cls-1" d="m34.13,53.79c0,.86-.7,1.55-1.55,1.55s-1.55-.7-1.55-1.55.7-1.55,1.55-1.55,1.55.7,1.55,1.55Z"/>
          </g>
          <path class="cls-6" d="m34.59,35.28c13.37,2.83,27.46,3.04,42.41,0,0,0,.28-20.64-20.64-21.33-20.92-.68-21.77,21.33-21.77,21.33Z"/>
          <path class="cls-3" d="m67.49,13.87c-7.79-3.04-15.68-3.04-23.47,0l-.27-.7c7.97-3.12,16.05-3.12,24.02,0l-.27.7Z"/>
          <path class="cls-3" d="m77.63,35c-.56-5.85-2.61-10.97-6.1-15.23l.58-.48c3.58,4.38,5.69,9.64,6.26,15.64l-.75.07Z"/>
          <path class="cls-3" d="m34.5,35l-.75-.07c.57-6,2.68-11.26,6.26-15.64l.58.48c-3.49,4.26-5.54,9.39-6.1,15.23Z"/>
          <path class="cls-3" d="m41.29,36.44l-.75-.06c.27-3.28.94-6.61,2-9.89l.71.23c-1.04,3.22-1.71,6.49-1.97,9.72Z"/>
          <path class="cls-3" d="m68.17,36.77l-.75-.03c.08-2.22-.28-4.85-1.05-7.84l.73-.19c.79,3.05,1.16,5.76,1.08,8.05Z"/>
          <path class="cls-3" d="m65.63,26.41c-.55-1.72-1.03-2.86-1.03-2.87l.69-.29s.49,1.18,1.05,2.93l-.71.23Z"/>
        </g>
      </g>
    </g>
  </g>
</svg>