<?xml version="1.0" encoding="UTF-8"?>
<svg id="Calque_2" data-name="Calque 2" xmlns="http://www.w3.org/2000/svg" viewBox="0 0 111.64 112.32">
  <defs>
    <style>
      .cls-1 {
        fill: #fff;
      }

      .cls-2 {
        fill: #c46966;
      }

      .cls-3 {
        fill: #eabfb9;
      }

      .cls-4 {
        fill: #e2988f;
      }

      .cls-5 {
        fill: #fce8e3;
      }

      .cls-6 {
        fill: #4c224b;
      }

      .cls-7 {
        fill: #f4ba5d;
      }
    </style>
  </defs>
  <g id="OBJECTS">
    <g>
      <circle class="cls-5" cx="55.82" cy="56.5" r="55.82" transform="translate(-23.6 56.02) rotate(-45)"/>
      <g>
        <g>
          <rect class="cls-4" x="41.19" y="49.15" width="29.53" height="33.36"/>
          <g>
            <path class="cls-1" d="m103.66,85.5c-15.76-7.03-32.94-9.52-32.94-9.52-7.88,8.22-22.57,8.34-29.53,0,0,0-17.18,2.49-32.94,9.52,9.8,16.08,27.5,26.83,47.71,26.83s37.91-10.74,47.71-26.83Z"/>
            <path class="cls-7" d="m73.93,76.52v32.84c12.48-4.24,22.98-12.79,29.73-23.87-11.63-5.19-24.03-7.91-29.73-8.97Z"/>
            <path class="cls-7" d="m37.92,76.53c-5.73,1.08-18.08,3.79-29.67,8.96,6.74,11.06,17.21,19.6,29.67,23.85v-32.81Z"/>
            <path class="cls-3" d="m55.54,85.96c-.09,0-.19,0-.28,0-7.63-.08-14.07-3.44-17.66-9.23l.64-.4c3.45,5.56,9.66,8.79,17.03,8.87,7.67.07,14.73-3.32,18.35-8.88l.63.41c-3.71,5.7-10.86,9.22-18.71,9.22Z"/>
          </g>
        </g>
        <g>
          <path class="cls-4" d="m84.88,31.38c-1.63-3.9-4.96-1.98-4.96-1.98,1.92-17.71-7.08-29.4-23.97-29.4s-25.89,11.69-23.97,29.4c0,0-3.33-1.91-4.96,1.98s1.35,13.03,3.19,15.94c1.84,2.9,4.63,1.68,4.63,1.68,0,0,.68,6.68,1.53,8.95.85,2.27,10.48,12.69,13.31,14.28,3.71,2.19,9.19,2.19,12.52,0,2.83-1.59,12.46-12.01,13.31-14.28.85-2.27,1.52-9.07,1.52-9.07,0,0,2.8,1.35,4.65-1.56,1.84-2.9,4.82-12.04,3.19-15.94Z"/>
          <g>
            <path class="cls-2" d="m56.11,74.22c-2.32,0-4.69-.56-6.6-1.68-1.72-.97-5.66-4.91-8.59-8.17l.56-.5c2.99,3.31,6.84,7.13,8.41,8.02,3.59,2.11,8.92,2.12,12.13.01,1.59-.9,5.44-4.72,8.43-8.03l.56.5c-2.94,3.26-6.88,7.2-8.6,8.17-1.7,1.12-3.98,1.68-6.3,1.68Z"/>
            <rect class="cls-2" x="34.24" y="44.81" width=".75" height="4.2" transform="translate(-5.01 4.15) rotate(-6.4)"/>
            <rect class="cls-2" x="75.22" y="46.47" width="4.08" height=".75" transform="translate(22.62 118.8) rotate(-84.02)"/>
            <g>
              <path class="cls-2" d="m29.21,40.14c-.16-.57-1.48-5.65.35-7.04.6-.4,1.1-.36,1.41-.25.93.3,1.4,1.46,1.45,1.59l-.7.27c-.1-.26-.48-.98-.98-1.14-.23-.07-.48-.03-.75.15-1.06.8-.6,4.25-.06,6.23l-.72.2Z"/>
              <path class="cls-2" d="m82.71,40.14l-.72-.2c.54-1.98,1-5.43-.08-6.24-.25-.16-.5-.21-.73-.14-.6.2-.98,1.13-.98,1.14l-.7-.27c.05-.13.52-1.28,1.45-1.59.31-.1.81-.14,1.39.24,1.85,1.4.53,6.48.37,7.05Z"/>
            </g>
          </g>
          <path class="cls-6" d="m34.38,38.71c5.01.03,1.22-16.14,5.15-20.06,2-1.99,30.92-1.91,32.84,0,3.93,3.91.14,20.08,5.15,20.06-.35-3.74-.36-7.83,2.39-9.31h0c1.92-17.71-7.08-29.4-23.97-29.4s-25.89,11.69-23.97,29.4h0c2.23,1.45,2.74,5.4,2.39,9.31Z"/>
          <path class="cls-6" d="m55.96,44.07s-11.87-.26-12.36,7.67h24.72c-.49-7.93-12.36-7.67-12.36-7.67Z"/>
        </g>
      </g>
    </g>
  </g>
</svg>