<?xml version="1.0" encoding="UTF-8"?>
<svg id="Calque_2" data-name="Calque 2" xmlns="http://www.w3.org/2000/svg" viewBox="0 0 111.64 111.7">
  <defs>
    <style>
      .cls-1 {
        fill: #fff;
      }

      .cls-2 {
        fill: #d85d63;
      }

      .cls-3 {
        fill: #c46966;
      }

      .cls-4 {
        fill: #b73d49;
      }

      .cls-5 {
        fill: #e2988f;
      }

      .cls-6 {
        fill: #fce8e3;
      }
    </style>
  </defs>
  <g id="OBJECTS">
    <g>
      <circle class="cls-6" cx="55.82" cy="55.82" r="55.82" transform="translate(-23.12 55.82) rotate(-45)"/>
      <g>
        <g>
          <rect class="cls-5" x="41.05" y="48.53" width="29.53" height="33.36"/>
          <g>
            <path class="cls-2" d="m103.53,84.87c-15.76-7.03-32.94-9.52-32.94-9.52-7.88,8.22-22.57,8.33-29.53,0,0,0-17.18,2.49-32.94,9.52,9.8,16.08,27.5,26.83,47.71,26.83s37.91-10.74,47.71-26.83Z"/>
            <path class="cls-4" d="m55.4,85.34c-.09,0-.19,0-.28,0-7.63-.08-14.06-3.44-17.66-9.23l.64-.4c3.45,5.56,9.66,8.79,17.03,8.87.09,0,.18,0,.27,0,7.6,0,14.51-3.39,18.08-8.88l.63.41c-3.71,5.7-10.86,9.22-18.71,9.22Z"/>
          </g>
        </g>
        <g>
          <path class="cls-5" d="m83.7,32.29c-1.57-3.75-4.78-1.91-4.78-1.91.67-14.71-6.83-24.92-23.1-24.92s-23.68,12.25-23.1,24.92c0,0-3.21-1.84-4.78,1.91-1.57,3.75,1.3,12.56,3.07,15.36,1.77,2.8,4.46,1.62,4.46,1.62,0,0,.66,6.44,1.48,8.62.82,2.18,10.1,12.23,12.83,13.76,3.58,2.11,8.85,2.11,12.07,0,2.73-1.54,12.01-11.58,12.83-13.76.82-2.18,1.46-8.74,1.46-8.74,0,0,2.7,1.3,4.48-1.5,1.77-2.8,4.64-11.6,3.07-15.36Z"/>
          <g>
            <path class="cls-3" d="m55.96,72.15c-6.63,0-11.54-4.59-14.65-8.05l.56-.5c3.02,3.35,7.76,7.8,14.09,7.8,5.98,0,10.34-3.94,13.82-7.8l.56.5c-3.59,3.98-8.1,8.05-14.37,8.05Z"/>
            <rect class="cls-3" x="34.88" y="45.23" width=".75" height="4.05" transform="translate(-5.04 4.22) rotate(-6.39)"/>
            <rect class="cls-3" x="74.39" y="46.82" width="3.93" height=".75" transform="translate(21.46 118.22) rotate(-84.02)"/>
            <g>
              <path class="cls-3" d="m30.03,40.74c-.15-.55-1.43-5.45.34-6.8.59-.39,1.07-.34,1.37-.25.9.29,1.36,1.41,1.4,1.54l-.7.27c-.1-.25-.46-.94-.94-1.09-.22-.07-.45-.02-.71.15-1.01.77-.57,4.08-.05,5.99l-.72.2Z"/>
              <path class="cls-3" d="m81.61,40.74l-.72-.2c.52-1.9.96-5.22-.07-6-.24-.15-.47-.2-.69-.13-.48.16-.84.84-.94,1.09l-.7-.27c.05-.13.5-1.24,1.4-1.54.3-.1.79-.14,1.35.23,1.79,1.36.51,6.26.36,6.81Z"/>
            </g>
          </g>
          <path class="cls-1" d="m32.72,30.38c1.85,1.96,2.65,4.29,3.1,7.42-.34-10.43,4.51-14.17,4.44-27.01-6.39.66-9.06,10.13-8.24,19.31l.7.29Z"/>
          <path class="cls-1" d="m78.89,30.38c-1.85,1.96-2.65,4.29-3.1,7.42.34-10.43-4.51-14.17-4.44-27.01,6.39.66,9.06,10.13,8.24,19.31l-.7.29Z"/>
        </g>
      </g>
    </g>
  </g>
</svg>