<?xml version="1.0" encoding="UTF-8"?>
<svg id="Calque_2" data-name="Calque 2" xmlns="http://www.w3.org/2000/svg" viewBox="0 0 111.64 113.71">
  <defs>
    <style>
      .cls-1 {
        fill: #fff;
      }

      .cls-2 {
        fill: #c46966;
      }

      .cls-3 {
        fill: #94a5e4;
      }

      .cls-4 {
        fill: #e2988f;
      }

      .cls-5 {
        fill: #fce8e3;
      }

      .cls-6 {
        fill: #f4ba5d;
      }
    </style>
  </defs>
  <g id="OBJECTS">
    <g>
      <circle class="cls-5" cx="55.82" cy="57.75" r="55.82" transform="translate(-13.21 98.81) rotate(-76.72)"/>
      <g>
        <path class="cls-6" d="m66.31,74.38c3.81-.15,7.58-.47,11.28-.99,6.95-.98,13.15-2.72,16.4-9.49,3.31-7.27-.48-18.2-4.2-24.98-2.32-4.22-4.64-8.38-6.27-12.92-2.27-6.3-3.95-13.08-8.74-18.05-.18-.19-.37-.38-.56-.56C69.28,2.67,62.62,0,55.79,0c-9.92,0-19.51,5.82-23.82,14.8-2.95,6.15-3.95,13.01-6.78,19.22-2.97,6.51-6.49,12.84-7.7,19.97-.78,4.6.47,9.24,3.7,12.64,3.9,4.12,9.07,5.84,14.45,6.59,9.97,1.39,20.4,1.55,30.68,1.15Z"/>
        <g>
          <rect class="cls-4" x="42.78" y="50.54" width="26.15" height="33.36"/>
          <path class="cls-1" d="m103.85,86.42c-12.31-5.17-34.76-9.07-34.76-9.07-8.62,7.26-19.52,7.21-26.3,0,0,0-22.74,3.37-35.57,7.86,9.17,16.29,26.27,27.52,46.08,28.42.89.03,1.77.06,2.67.06,20.37-.03,38.17-10.97,47.89-27.28Z"/>
          <path class="cls-3" d="m37.47,78.22c-7.5,1.28-21.29,3.86-30.26,7.01,8.22,14.6,22.8,25.12,39.99,27.8,0,0-8.54-15.43-9.73-34.81Z"/>
          <path class="cls-3" d="m74.17,78.22c7.5,1.28,21.29,3.86,30.26,7.01-8.22,14.6-22.8,25.12-39.99,27.8,0,0,8.54-15.43,9.73-34.81Z"/>
        </g>
        <g>
          <path class="cls-4" d="m55.82,10.14h0c-16.86.02-20.69,12.64-20.34,25.35,0,9.16-.65,12.13.2,14.4.47,3.23,7.03,19.7,20.13,19.7s19.1-15.6,20.26-19.7c.85-2.27.08-5.24.08-14.4.35-12.71-3.48-25.33-20.34-25.35Z"/>
          <path class="cls-2" d="m55.82,69.97c-4.49,0-9.72-2.59-13.32-6.6l.56-.5c3.46,3.86,8.47,6.35,12.76,6.35s9.47-2.54,12.83-6.33l.56.5c-3.49,3.94-8.87,6.59-13.39,6.59Z"/>
          <path class="cls-4" d="m35.86,36.71s-3.45-4.06-7-1.69c-3.55,2.38-.1,15.87,7,13.49,7.1-2.38,0-11.8,0-11.8Z"/>
          <path class="cls-4" d="m75.85,36.71s3.45-4.06,7-1.69c3.55,2.38.1,15.87-7,13.49-7.1-2.38,0-11.8,0-11.8Z"/>
          <rect class="cls-2" x="34.6" y="42.53" width=".75" height="6.3" transform="translate(-5.97 5.27) rotate(-7.94)"/>
          <rect class="cls-2" x="73.64" y="45.3" width="6.27" height=".75" transform="translate(24.18 117.89) rotate(-84.69)"/>
          <path class="cls-2" d="m30.64,42.05c-.76-2.03-.83-3.5-.18-4.38.59-.81,1.55-.77,1.59-.77l-.04.75s-.6-.02-.95.47c-.33.45-.54,1.46.29,3.67l-.7.26Z"/>
          <path class="cls-2" d="m81.36,42.05l-.7-.26c.83-2.21.61-3.21.29-3.66-.35-.49-.92-.47-.95-.47l-.04-.75s.99-.04,1.59.77c.64.88.58,2.35-.19,4.38Z"/>
          <path class="cls-6" d="m33.23,34.72c3.14-5.61,18.03-4.87,22.62-17.68,4.44,14.62,17.57,10.34,23.37,18.16,0,0-2.77-29.46-23.37-29.46s-22.62,28.98-22.62,28.98Z"/>
        </g>
      </g>
    </g>
  </g>
</svg>